<?xml version="1.0" standalone="no"?><!DOCTYPE svg PUBLIC "-//W3C//DTD SVG 1.1//EN" "http://www.w3.org/Graphics/SVG/1.1/DTD/svg11.dtd"><svg t="1516881041851" class="icon" style="" viewBox="0 0 1024 1024" version="1.1" xmlns="http://www.w3.org/2000/svg" p-id="3420" xmlns:xlink="http://www.w3.org/1999/xlink" width="200" height="200"><defs><style type="text/css"></style></defs><path d="M697.282955 0.859782 326.717045 0.859782c-97.155332 0-175.395466 78.240134-175.395466 175.395466l0 670.629723c0 97.155332 78.240134 175.395466 175.395466 175.395466l370.565911 0c97.155332 0 175.395466-78.240134 175.395466-175.395466l0-670.629723C872.678421 79.099916 794.438287 0.859782 697.282955 0.859782zM828.829555 846.884971c2.579345 75.660789-58.465155 134.125945-131.546599 134.125945L326.717045 981.010915c-73.081444 0-134.125945-61.0445-134.125945-134.125945l0-46.428212 636.238455 0L828.829555 846.884971zM831.4089 759.187238l-636.238455 0L195.170445 210.646516l636.238455 0L831.4089 759.187238zM195.170445 166.797649C197.74979 98.874895 256.214945 42.989085 326.717045 42.989085l370.565911 0c70.502099 0 128.967254 55.88581 134.125945 124.668346L195.170445 167.657431z" p-id="3421" fill="#999999"></path><path d="M511.570109 951.778338c14.616289 0 26.653233-5.15869 36.970613-14.616289 9.457599-9.457599 14.616289-22.354324 14.616289-36.970613s-5.15869-26.653233-14.616289-36.970613-22.354324-14.616289-36.970613-14.616289-26.653233 5.15869-36.970613 14.616289c-9.457599 9.457599-14.616289 22.354324-14.616289 36.970613s5.15869 26.653233 14.616289 36.970613C484.916877 946.619647 496.95382 951.778338 511.570109 951.778338z" p-id="3422" fill="#999999"></path></svg>