<?xml version="1.0" standalone="no"?><!DOCTYPE svg PUBLIC "-//W3C//DTD SVG 1.1//EN" "http://www.w3.org/Graphics/SVG/1.1/DTD/svg11.dtd"><svg t="1516948755972" class="icon" style="" viewBox="0 0 1024 1024" version="1.1" xmlns="http://www.w3.org/2000/svg" p-id="12320" xmlns:xlink="http://www.w3.org/1999/xlink" width="200" height="200"><defs><style type="text/css"></style></defs><path d="M131.667968 514.582528c-7.747584 7.7312-20.905984 7.7312-28.64128 0-7.745536-7.759872-7.745536-20.905984 0-29.44L497.010688 91.174912c8.51968-7.735296 21.661696-7.735296 29.425664 0l393.965568 393.967616c8.505344 8.534016 8.505344 21.680128 0 29.44-7.733248 7.7312-20.905984 7.7312-28.637184 0L511.715328 134.53312 131.667968 514.582528z" p-id="12321" fill="#999999"></path><path d="M810.483712 434.049024c0-11.573248 8.534016-20.105216 20.13184-20.105216 11.599872 0 20.905984 8.534016 20.905984 20.105216L851.521536 924.81536c0 10.825728-9.306112 20.105216-20.905984 20.105216L192.813056 944.920576c-10.840064 0-20.119552-9.279488-20.119552-20.105216L172.693504 434.049024c0-11.573248 9.279488-20.105216 20.119552-20.105216 11.61216 0 20.893696 8.534016 20.893696 20.105216l0 469.860352 596.779008 0L810.48576 434.049024z" p-id="12322" fill="#999999"></path></svg>