<?xml version="1.0" standalone="no"?><!DOCTYPE svg PUBLIC "-//W3C//DTD SVG 1.1//EN" "http://www.w3.org/Graphics/SVG/1.1/DTD/svg11.dtd"><svg t="1516880889740" class="icon" style="" viewBox="0 0 1024 1024" version="1.1" xmlns="http://www.w3.org/2000/svg" p-id="2680" xmlns:xlink="http://www.w3.org/1999/xlink" width="200" height="200"><defs><style type="text/css"></style></defs><path d="M512 116.05504c118.77888 0 214.47168 95.68256 214.47168 214.46656v65.99168H297.52832V330.5216c0-118.784 95.68768-214.46656 214.47168-214.46656M512 66.56c-145.1776 0-263.97184 118.784-263.97184 263.9616V446.0032h527.93856V330.5216C775.97184 185.344 657.1776 66.56 512 66.56z" fill="#999999" p-id="2681"></path><path d="M808.96512 446.0032v362.94656c0 54.44608-44.544 98.99008-98.9952 98.99008H314.02496c-54.43584 0-98.98496-44.544-98.98496-98.99008V446.0032h593.92512m49.48992-49.48992H165.54496v412.43648a147.87072 147.87072 0 0 0 148.48 148.49024h395.94496a147.8656 147.8656 0 0 0 148.48512-148.49024V396.51328z" fill="#999999" p-id="2682"></path><path d="M520.25344 610.98496c13.19424 0 24.73984 11.5456 24.73984 24.74496v98.98496c0 13.19424-11.5456 24.74496-24.73984 24.74496-13.20448 0-24.7552-11.55072-24.7552-24.74496v-98.98496c0-13.19936 11.55072-24.74496 24.7552-24.74496z" fill="#999999" p-id="2683"></path></svg>