<?xml version="1.0" encoding="utf-8"?>
<!-- Generator: Adobe Illustrator 21.0.2, SVG Export Plug-In . SVG Version: 6.00 Build 0)  -->
<svg version="1.1" id="图层_1" xmlns="http://www.w3.org/2000/svg" xmlns:xlink="http://www.w3.org/1999/xlink" x="0px" y="0px"
	 viewBox="0 0 200 200" style="enable-background:new 0 0 200 200;" xml:space="preserve">
<style type="text/css">
	.st0{fill:#FFFFFF;}
	.st1{fill:none;stroke:#000000;stroke-width:0.5996;stroke-miterlimit:10;}
	.st2{fill:#CFCFCF;}
	.st3{fill:#DC542C;}
</style>
<path class="st0" d="M182.3,194.8H16.7c-6.6,0-12-5.4-12-12V17.2c0-6.6,5.4-12,12-12h165.7c6.6,0,12,5.4,12,12v165.7
	C194.3,189.4,188.9,194.8,182.3,194.8z"/>
<g>
	<g id="XMLID_17_">
		<path id="XMLID_18_" class="st1" d="M42.5,136.6C42.5,136.6,42.5,136.6,42.5,136.6L42.5,136.6C42.5,136.6,42.5,136.6,42.5,136.6z"
			/>
	</g>
	<g id="XMLID_15_">
		<path id="XMLID_16_" class="st2" d="M122,65.8l-8.8-8.8l8.8-8.8l-8.8-8.8l8.6-8.6c-4.8-0.3-9.8-0.3-15,0.2
			c-32.2,2.8-58.2,19.8-58.2,38.1c0,13.6,14.5,24,35.2,27.3c9.8-6.5,23.3-11.3,38.2-13.1l-8.7-8.7L122,65.8z"/>
	</g>
	<path id="XMLID_10_" class="st3" d="M170.4,71.3v-0.2c0-0.7-0.6-1.2-1.3-1.2c-0.5,0-0.9,0.3-1.1,0.7l0,0.1
		c-4.4,9.6-14.5,18.3-27.9,24.4c-9.8,4.5-21.2,7.6-33.5,8.7c-12.3,1.1-23.8,0.1-33.6-2.6c-13.4-3.7-23.6-10.6-28-19.4l-0.1-0.3
		c-0.2-0.3-0.6-0.6-1.1-0.6c-0.7,0-1.3,0.6-1.3,1.3v54.2v0c0,21.1,28.8,35.5,64.1,32.3c35.3-3.2,63.9-22.9,63.9-44v0L170.4,71.3z
		 M118.5,115.5v20.5c0,0.8-0.5,1.4-1.2,1.6c-0.1,0-0.3,0-0.4,0.1c-1.1,0.2-2.1,0.3-3.2,0.5c0,0,0,0,0,0c-0.1,0-0.2,0-0.3,0
		c-1,0-1.7-0.8-1.7-1.7V116v-0.5c0.1-0.7,0.6-1.2,1.2-1.4c0.2,0,0.4,0,0.5-0.1c1-0.1,2-0.3,3-0.5l0.4-0.1c0.9,0,1.6,0.6,1.7,1.5
		V115.5z M135.8,147.3c0,0.7-0.4,1.3-1.1,1.6c0,0,0,0,0,0c-1.1,0.4-2.3,0.7-3.4,1.1c-0.1,0-0.3,0.1-0.4,0.1c-0.1,0-0.2,0-0.3,0
		c-1,0-1.7-0.8-1.7-1.7v-36.3c0-0.7,0.4-1.3,1-1.6c0.2,0,0.3-0.1,0.5-0.1c1-0.3,2-0.6,3-0.9c0,0,0,0,0.1,0c0.2-0.1,0.4-0.1,0.6-0.1
		c1,0,1.7,0.8,1.7,1.7V147.3z M153.1,139.7c0,0.6-0.3,1.1-0.7,1.4c-0.1,0.1-0.2,0.1-0.3,0.2c-1,0.6-2.1,1.1-3.1,1.7
		c-0.2,0.1-0.3,0.2-0.5,0.2c-0.2,0.1-0.4,0.1-0.5,0.1c-1,0-1.7-0.8-1.7-1.7c0,0,0,0,0,0l0,0v-36.1c0,0,0,0,0,0c0,0,0,0,0,0
		c0-0.6,0.3-1.1,0.7-1.4c0.2-0.1,0.3-0.2,0.5-0.2c1-0.5,2-1,2.9-1.5c0.1-0.1,0.3-0.2,0.4-0.2c0.2-0.1,0.4-0.1,0.6-0.1
		c1,0,1.7,0.8,1.7,1.7V139.7z"/>
</g>
</svg>
