<?xml version="1.0" standalone="no"?><!DOCTYPE svg PUBLIC "-//W3C//DTD SVG 1.1//EN" "http://www.w3.org/Graphics/SVG/1.1/DTD/svg11.dtd"><svg t="1516938052456" class="icon" style="" viewBox="0 0 1024 1024" version="1.1" xmlns="http://www.w3.org/2000/svg" p-id="4468" xmlns:xlink="http://www.w3.org/1999/xlink" width="200" height="200"><defs><style type="text/css"></style></defs><path d="M910.592 666.752h-45.824V418.176v-0.512-0.96a352.448 352.448 0 0 0-257.088-339.2 97.92 97.92 0 0 0-191.424 0 352.64 352.64 0 0 0-257.024 339.2v250.048h-45.76a49.408 49.408 0 0 0-49.472 49.344v3.904c0 27.392 22.144 49.472 49.472 49.472h797.12A49.472 49.472 0 0 0 960 720v-3.904a49.408 49.408 0 0 0-49.408-49.344zM512 1024a196.096 196.096 0 0 0 192-156.544H320A196.096 196.096 0 0 0 512 1024z" p-id="4469" fill="#ffbc0c"></path></svg>